<svg xmlns="http://www.w3.org/2000/svg" viewBox="0 0 18 18">
  <path fill="#4285F4" d="M17.64 9.2045c0-.638-.0573-1.2518-.1636-1.8409H9v3.4818h4.8436c-.2086 1.125-.8427 2.0795-1.7963 2.7182v2.2582h2.9086c1.7027-1.5673 2.6836-3.874 2.6836-6.6173z"/>
  <path fill="#34A853" d="M9 18c2.43 0 4.4673-.8068 5.9564-2.1773l-2.9086-2.2582c-.8068.5409-1.8377.8609-3.0477.8609-2.3427 0-4.3282-1.5818-5.0373-3.7091H.9573v2.3318C2.4382 15.9891 5.4818 18 9 18z"/>
  <path fill="#FBBC05" d="M3.9627 10.7164C3.7827 10.1755 3.68 9.5973 3.68 9s.1027-1.1755.2827-1.7164V4.9518H.9573C.3473 6.1682 0 7.5436 0 9s.3473 2.8318.9573 4.0482l3.0054-2.3318z"/>
  <path fill="#EA4335" d="M9 3.5745c1.3218 0 2.5077.4545 3.44 1.3455l2.5818-2.5818C13.4636.8909 11.4264 0 9 0 5.4818 0 2.4382 2.0109.9573 4.9518l3.0054 2.3318C4.6718 5.1564 6.6573 3.5745 9 3.5745z"/>
</svg>
